<?xml version="1.0" encoding="utf-8"?>
<!-- Generator: Adobe Illustrator 27.0.1, SVG Export Plug-In . SVG Version: 6.00 Build 0)  -->
<svg version="1.1" id="Layer_1" xmlns="http://www.w3.org/2000/svg" xmlns:xlink="http://www.w3.org/1999/xlink" x="0px" y="0px"
	 viewBox="0 0 328.7 64" style="enable-background:new 0 0 328.7 64;" xml:space="preserve">
<style type="text/css">
	.st0{fill:#FFFFFF;}
	.st1{fill:#333333;}
	.st2{display:none;}
	.st3{display:inline;fill:#333333;}
	.st4{fill:#B03E3E;}
</style>
<g>
	<circle class="st0" cx="178.3" cy="24.1" r="18.2"/>
	<g>
		<path class="st1" d="M178.3,0c-17.7,0-32,14.4-32,32c0,17.7,14.4,32,32,32s32-14.4,32-32C210.4,14.4,196,0,178.3,0z M178.3,40.1
			c-8.8,0-15.9-7.1-15.9-15.9s7.1-15.9,15.9-15.9s15.9,7.1,15.9,15.9S187.1,40.1,178.3,40.1z"/>
	</g>
	<g>
		<path class="st1" d="M183,21.8c0.8-1,1.3-2.3,1.3-3.8c0-3.3-2.7-6.1-6.1-6.1c-3.3,0-6.1,2.7-6.1,6.1c0,1.4,0.5,2.7,1.3,3.8
			c-1.4,1.3-2.3,3.1-2.3,5.3c0,3.8,3.1,7,7,7c3.8,0,7-3.1,7-7C185.4,25,184.4,23.1,183,21.8z M176.3,18c0-1.1,0.9-1.9,1.9-1.9
			c1.1,0,1.9,0.9,1.9,1.9c0,1.1-0.9,1.9-1.9,1.9C177.3,20.1,176.3,19.1,176.3,18z M178.3,30.1c-1.6,0-3-1.3-3-3c0-1.6,1.3-3,3-3
			c1.6,0,3,1.3,3,3C181.3,28.8,180,30.1,178.3,30.1z"/>
	</g>
</g>
<g class="st2">
	<path class="st3" d="M-50,49.4c-0.4,0-0.8-0.2-1.1-0.5c-0.3-0.3-0.5-0.7-0.5-1.2V16.9c0-0.5,0.2-0.9,0.5-1.2
		c0.3-0.3,0.7-0.5,1.1-0.5h6.1c0.4,0,0.8,0.2,1.1,0.5c0.3,0.3,0.5,0.7,0.5,1.2v2.2c0.9-1.2,2.1-2.3,3.6-3.2c1.6-0.9,3.4-1.3,5.5-1.4
		c5.1-0.1,8.6,1.8,10.4,5.8c1-1.7,2.5-3.1,4.4-4.2c1.9-1.1,4-1.6,6.3-1.6S-7.8,15-5.9,16c1.8,1,3.3,2.6,4.4,4.7
		c1.1,2.1,1.6,4.8,1.6,8.2v18.7c0,0.5-0.2,0.9-0.5,1.2s-0.7,0.5-1.1,0.5H-8c-0.4,0-0.8-0.2-1.1-0.5s-0.5-0.7-0.5-1.2V29.5
		c0-1.8-0.3-3.2-0.8-4.2s-1.2-1.8-2.1-2.2c-0.9-0.4-1.8-0.7-2.9-0.7c-0.9,0-1.8,0.2-2.7,0.7c-0.9,0.4-1.6,1.2-2.1,2.2
		s-0.8,2.4-0.8,4.2v18.2c0,0.5-0.2,0.9-0.5,1.2s-0.7,0.5-1.2,0.5h-6.4c-0.5,0-0.9-0.2-1.2-0.5c-0.3-0.3-0.5-0.7-0.5-1.2V29.5
		c0-1.8-0.3-3.2-0.8-4.2c-0.5-1-1.2-1.8-2.1-2.2c-0.9-0.4-1.8-0.7-2.8-0.7c-0.9,0-1.8,0.2-2.7,0.7c-0.9,0.5-1.6,1.2-2.1,2.2
		s-0.8,2.4-0.8,4.1v18.3c0,0.5-0.2,0.9-0.5,1.2s-0.7,0.5-1.1,0.5C-43.7,49.4-50,49.4-50,49.4z"/>
	<path class="st3" d="M18.1,50c-2.3,0-4.4-0.4-6.2-1.3c-1.8-0.9-3.3-2.1-4.4-3.6c-1.1-1.5-1.6-3.2-1.6-5.1c0-3.1,1.3-5.6,3.8-7.4
		c2.5-1.8,5.8-3,9.9-3.7l8.6-1.2v-1.2c0-1.7-0.4-3-1.2-3.9c-0.8-0.9-2.2-1.4-4.1-1.4c-1.4,0-2.6,0.3-3.5,0.9s-1.6,1.3-2,2.2
		c-0.4,0.6-0.9,0.9-1.5,0.9H9.7c-0.5,0-0.9-0.1-1.1-0.4c-0.3-0.3-0.4-0.6-0.3-1c0-0.7,0.3-1.6,0.9-2.6c0.6-1,1.4-2,2.6-3
		s2.7-1.8,4.5-2.5c1.8-0.7,4.1-1,6.8-1c2.8,0,5.1,0.3,7.1,1c2,0.7,3.5,1.6,4.7,2.8c1.2,1.2,2.1,2.6,2.6,4.1c0.6,1.6,0.9,3.2,0.9,5
		v20.3c0,0.5-0.2,0.9-0.5,1.2s-0.7,0.5-1.2,0.5h-6.4c-0.4,0-0.8-0.2-1.1-0.5c-0.3-0.3-0.5-0.7-0.5-1.2v-2.4
		c-0.6,0.8-1.3,1.6-2.3,2.3s-2.1,1.3-3.4,1.7C21.5,49.8,19.9,50,18.1,50z M20.7,43.2c1.4,0,2.7-0.3,3.9-0.9c1.1-0.6,2-1.6,2.7-2.8
		c0.7-1.3,1-2.9,1-4.8v-1.1l-6.1,1c-2.4,0.4-4.1,1-5.2,1.8s-1.6,1.8-1.6,2.9c0,0.8,0.3,1.6,0.8,2.2c0.5,0.6,1.2,1.1,2,1.4
		C18.9,43,19.8,43.2,20.7,43.2z"/>
	<path class="st3" d="M62.2,63.8c-3.2,0-5.9-0.4-8.1-1.3c-2.1-0.9-3.8-1.9-5.1-3.1c-1.2-1.2-2.1-2.4-2.7-3.6
		c-0.5-1.2-0.8-2.1-0.9-2.8c0-0.5,0.1-0.9,0.5-1.2c0.3-0.3,0.7-0.5,1.2-0.5h7c0.4,0,0.7,0.1,1,0.3s0.5,0.5,0.7,1s0.5,1.1,0.9,1.7
		c0.4,0.6,1,1.1,1.8,1.5s1.9,0.6,3.2,0.6c1.5,0,2.8-0.2,3.8-0.7c1-0.4,1.8-1.2,2.3-2.2c0.5-1.1,0.8-2.5,0.8-4.3V45
		c-1.1,1.1-2.4,2.1-4,2.8s-3.6,1.1-5.9,1.1s-4.3-0.4-6-1.1c-1.7-0.7-3.2-1.8-4.3-3.1c-1.1-1.3-2-2.9-2.6-4.8c-0.6-1.9-1-4-1.1-6.4
		c0-1.2,0-2.3,0-3.5c0.1-2.3,0.4-4.4,1.1-6.2c0.6-1.9,1.5-3.5,2.6-4.9s2.6-2.5,4.3-3.2c1.7-0.8,3.7-1.1,6-1.1c2.4,0,4.5,0.5,6.2,1.4
		c1.7,0.9,3.1,2.1,4.2,3.4v-2.5c0-0.4,0.2-0.8,0.5-1.1c0.3-0.3,0.7-0.5,1.1-0.5h6.4c0.4,0,0.8,0.2,1.1,0.5c0.3,0.3,0.5,0.7,0.5,1.1
		l0.1,31.6c0,3.3-0.6,6.1-1.9,8.3c-1.3,2.3-3.1,4-5.6,5.2C68.9,63.2,65.8,63.8,62.2,63.8z M61.8,41.2c1.6,0,2.9-0.4,3.8-1.1
		c1-0.7,1.7-1.6,2.2-2.8c0.5-1.1,0.7-2.3,0.8-3.5c0-0.5,0.1-1.2,0.1-2.1s0-1.6-0.1-2.1c0-1.2-0.3-2.4-0.8-3.5s-1.2-2-2.2-2.7
		s-2.3-1.1-3.8-1.1c-1.7,0-3,0.4-3.9,1.1c-1,0.7-1.7,1.7-2.1,2.9c-0.4,1.2-0.7,2.5-0.8,3.9c0,1.1,0,2.1,0,3.1
		c0.1,1.4,0.3,2.8,0.8,3.9c0.4,1.2,1.1,2.1,2.1,2.9C58.9,40.9,60.2,41.2,61.8,41.2z"/>
	<path class="st3" d="M88.6,10c-0.4,0-0.8-0.2-1.1-0.5S87,8.8,87,8.3V3.1c0-0.5,0.2-0.9,0.5-1.2s0.7-0.5,1.1-0.5h6.9
		c0.5,0,0.9,0.2,1.2,0.5s0.5,0.7,0.5,1.2v5.3c0,0.5-0.2,0.9-0.5,1.2s-0.7,0.5-1.2,0.5L88.6,10L88.6,10z M88.8,49.4
		c-0.4,0-0.8-0.2-1.1-0.5s-0.5-0.7-0.5-1.2V16.9c0-0.5,0.2-0.9,0.5-1.2s0.7-0.5,1.1-0.5h6.6c0.5,0,0.9,0.2,1.2,0.5s0.5,0.7,0.5,1.2
		v30.9c0,0.5-0.2,0.9-0.5,1.2s-0.7,0.5-1.2,0.5L88.8,49.4L88.8,49.4z"/>
	<path class="st3" d="M120.3,50c-3.2,0-6-0.6-8.4-1.8s-4.3-2.9-5.7-5.2s-2.2-5-2.3-8.1c0-0.7-0.1-1.6-0.1-2.7c0-1.1,0-2,0.1-2.7
		c0.1-3.2,0.9-5.9,2.3-8.2c1.4-2.3,3.3-4,5.7-5.2c2.5-1.2,5.3-1.8,8.5-1.8c2.9,0,5.4,0.4,7.5,1.2c2.1,0.8,3.7,1.8,5.1,3.1
		c1.3,1.2,2.3,2.5,2.9,3.8c0.6,1.3,1,2.5,1,3.5c0,0.4-0.1,0.8-0.4,1.1c-0.3,0.3-0.7,0.5-1.1,0.5h-7c-0.4,0-0.8-0.1-1-0.4
		c-0.2-0.2-0.5-0.6-0.7-1c-0.6-1.5-1.4-2.6-2.4-3.3c-1-0.7-2.2-1-3.6-1c-2,0-3.5,0.6-4.7,1.9c-1.1,1.3-1.8,3.2-1.8,5.9
		c0,1.7,0,3.3,0,4.7c0.1,2.7,0.8,4.7,1.9,5.9c1.1,1.2,2.7,1.8,4.6,1.8c1.5,0,2.8-0.3,3.7-1s1.7-1.8,2.3-3.3c0.2-0.4,0.4-0.8,0.7-1
		s0.6-0.4,1.1-0.4h7c0.4,0,0.8,0.2,1.1,0.5s0.5,0.7,0.4,1.1c0,0.7-0.3,1.6-0.6,2.6c-0.4,1-1,2-1.8,3.1s-1.8,2-3.1,2.9
		s-2.8,1.6-4.6,2.2C124.8,49.7,122.7,50,120.3,50z"/>
</g>
<g class="st2">
	<path class="st3" d="M239.7,50c-2.5,0-4.6-0.4-6.2-1.3c-1.7-0.9-3-1.9-4.1-3.2v2.2c0,0.5-0.2,0.9-0.5,1.2s-0.7,0.5-1.2,0.5h-6.2
		c-0.5,0-0.9-0.2-1.2-0.5c-0.3-0.3-0.5-0.7-0.5-1.2V4.4c0-0.5,0.2-0.9,0.5-1.2s0.7-0.5,1.2-0.5h6.8c0.4,0,0.8,0.2,1.1,0.5
		c0.3,0.3,0.5,0.7,0.5,1.2v14.3c1.1-1.2,2.5-2.2,4.1-3c1.6-0.8,3.5-1.1,5.8-1.1s4.3,0.4,5.9,1.1c1.7,0.8,3.1,1.8,4.3,3.2
		c1.2,1.4,2.1,3,2.7,4.9s1,4,1,6.2c0,0.8,0.1,1.5,0.1,2.2s0,1.4-0.1,2.3c-0.1,2.3-0.4,4.4-1.1,6.3c-0.6,1.9-1.5,3.5-2.7,4.9
		s-2.6,2.4-4.3,3.2C243.9,49.7,242,50,239.7,50z M236.7,42.1c1.7,0,3-0.4,3.9-1.1c1-0.7,1.7-1.7,2.1-2.9s0.7-2.5,0.8-3.9
		c0.1-1.4,0.1-2.7,0-4.1s-0.3-2.7-0.8-3.9c-0.4-1.2-1.1-2.1-2.1-2.9c-1-0.7-2.3-1.1-3.9-1.1s-2.9,0.4-3.8,1.1s-1.7,1.6-2.2,2.7
		s-0.8,2.2-0.8,3.4c0,0.8-0.1,1.6-0.1,2.4c0,0.8,0,1.7,0.1,2.5c0.1,1.3,0.3,2.5,0.8,3.7c0.4,1.1,1.2,2.1,2.2,2.8
		C233.8,41.8,235.1,42.1,236.7,42.1z"/>
	<path class="st3" d="M270.7,50c-2.3,0-4.4-0.4-6.2-1.3c-1.8-0.9-3.3-2.1-4.4-3.6s-1.6-3.2-1.6-5.1c0-3.1,1.3-5.6,3.8-7.4
		c2.5-1.8,5.8-3,9.9-3.7l8.6-1.2v-1.2c0-1.7-0.4-3-1.2-3.9c-0.8-0.9-2.2-1.4-4.1-1.4c-1.4,0-2.6,0.3-3.5,0.9s-1.6,1.3-2,2.2
		c-0.4,0.6-0.9,0.9-1.5,0.9h-6.2c-0.5,0-0.9-0.1-1.1-0.4c-0.3-0.3-0.4-0.6-0.3-1c0-0.7,0.3-1.6,0.9-2.6s1.4-2,2.6-3s2.7-1.8,4.5-2.5
		c1.8-0.7,4.1-1,6.8-1c2.8,0,5.1,0.3,7.1,1c2,0.7,3.5,1.6,4.7,2.8c1.2,1.2,2.1,2.6,2.6,4.1c0.6,1.6,0.9,3.2,0.9,5v20.3
		c0,0.5-0.2,0.9-0.5,1.2s-0.7,0.5-1.2,0.5h-6.4c-0.4,0-0.8-0.2-1.1-0.5c-0.3-0.3-0.5-0.7-0.5-1.2v-2.4c-0.6,0.8-1.3,1.6-2.3,2.3
		s-2.1,1.3-3.4,1.7C274.1,49.8,272.5,50,270.7,50z M273.4,43.2c1.4,0,2.7-0.3,3.9-0.9c1.1-0.6,2-1.6,2.7-2.8c0.7-1.3,1-2.9,1-4.8
		v-1.1l-6.1,1c-2.4,0.4-4.1,1-5.2,1.8s-1.6,1.8-1.6,2.9c0,0.8,0.3,1.6,0.8,2.2c0.5,0.6,1.2,1.1,2,1.4
		C271.6,43,272.4,43.2,273.4,43.2z"/>
	<path class="st3" d="M300.4,49.4c-0.5,0-0.9-0.2-1.2-0.5c-0.3-0.3-0.5-0.7-0.5-1.2V4.4c0-0.5,0.2-0.9,0.5-1.2s0.7-0.5,1.2-0.5h6.6
		c0.4,0,0.8,0.2,1.1,0.5c0.3,0.3,0.5,0.7,0.5,1.2v43.3c0,0.5-0.2,0.9-0.5,1.2s-0.7,0.5-1.1,0.5H300.4z"/>
	<path class="st3" d="M318.5,49.4c-0.5,0-0.9-0.2-1.2-0.5c-0.3-0.3-0.5-0.7-0.5-1.2V4.4c0-0.5,0.2-0.9,0.5-1.2s0.7-0.5,1.2-0.5h6.6
		c0.4,0,0.8,0.2,1.1,0.5c0.3,0.3,0.5,0.7,0.5,1.2v43.3c0,0.5-0.2,0.9-0.5,1.2s-0.7,0.5-1.1,0.5H318.5z"/>
</g>
<g>
	<path class="st0" d="M1.1,41.1c-0.3,0-0.5-0.1-0.8-0.3C0.1,40.6,0,40.3,0,40V11.5c0-0.3,0.1-0.6,0.3-0.8c0.2-0.2,0.5-0.3,0.8-0.3
		h4.1c0.4,0,0.8,0.1,1,0.4c0.2,0.2,0.4,0.4,0.5,0.5l8.1,14.9l8.1-14.9c0.1-0.1,0.2-0.3,0.4-0.5c0.2-0.2,0.5-0.4,1-0.4h4.1
		c0.3,0,0.6,0.1,0.8,0.3c0.2,0.2,0.3,0.5,0.3,0.8V40c0,0.3-0.1,0.6-0.3,0.8c-0.2,0.2-0.5,0.3-0.8,0.3h-4.5c-0.3,0-0.5-0.1-0.7-0.3
		c-0.2-0.2-0.3-0.5-0.3-0.8V22.3l-5.6,10.4c-0.1,0.3-0.3,0.5-0.6,0.7c-0.2,0.2-0.5,0.3-0.9,0.3h-2.1c-0.4,0-0.7-0.1-0.9-0.3
		c-0.2-0.2-0.4-0.4-0.6-0.7L6.6,22.3V40c0,0.3-0.1,0.6-0.3,0.8c-0.2,0.2-0.5,0.3-0.7,0.3H1.1z"/>
	<path class="st0" d="M34.1,41.1c-0.3,0-0.5-0.1-0.7-0.3c-0.2-0.2-0.3-0.4-0.3-0.6c0-0.1,0-0.3,0-0.4l10.4-28.2
		c0.1-0.3,0.3-0.6,0.5-0.8c0.3-0.2,0.6-0.4,1.1-0.4h5.6c0.5,0,0.8,0.1,1.1,0.4c0.3,0.2,0.4,0.5,0.5,0.8l10.4,28.2c0,0.1,0,0.2,0,0.4
		c0,0.2-0.1,0.4-0.3,0.6c-0.2,0.2-0.4,0.3-0.7,0.3h-4.6c-0.4,0-0.8-0.1-1-0.3c-0.2-0.2-0.3-0.4-0.4-0.6l-1.9-4.9H41.9L40,40.2
		c-0.1,0.2-0.2,0.4-0.4,0.6c-0.2,0.2-0.5,0.3-1,0.3H34.1z M43.5,29.7h9.1l-4.5-12.6L43.5,29.7z"/>
	<path class="st0" d="M78.4,41.5c-2.7,0-5.1-0.5-7-1.4c-1.9-0.9-3.4-2.3-4.5-4c-1.1-1.8-1.6-3.9-1.7-6.4c0-1.3,0-2.6,0-4
		c0-1.4,0-2.8,0-4.1c0.1-2.5,0.7-4.5,1.7-6.3c1.1-1.7,2.6-3,4.6-4c2-0.9,4.3-1.4,7-1.4c2.2,0,4.1,0.3,5.7,0.8c1.6,0.6,3,1.3,4.1,2.2
		c1.1,0.9,2,1.9,2.5,2.9c0.6,1.1,0.9,2.1,0.9,3c0,0.3-0.1,0.5-0.3,0.7c-0.2,0.2-0.4,0.3-0.7,0.3h-5.4c-0.3,0-0.5-0.1-0.7-0.2
		c-0.2-0.1-0.3-0.3-0.4-0.5c-0.2-0.5-0.5-1.1-1-1.6c-0.5-0.5-1.1-1-1.8-1.4c-0.8-0.4-1.8-0.6-3-0.6c-1.8,0-3.3,0.5-4.4,1.4
		c-1.1,1-1.6,2.5-1.7,4.7c-0.1,2.5-0.1,5.1,0,7.7c0.1,2.3,0.7,3.9,1.8,4.9c1.1,1,2.6,1.5,4.4,1.5c1.2,0,2.3-0.2,3.2-0.6
		c0.9-0.4,1.7-1.1,2.3-2c0.6-0.9,0.8-2.1,0.8-3.5v-1.1H80c-0.3,0-0.5-0.1-0.7-0.3c-0.2-0.2-0.3-0.5-0.3-0.8v-2.8
		c0-0.3,0.1-0.6,0.3-0.8c0.2-0.2,0.5-0.3,0.7-0.3h10.7c0.3,0,0.6,0.1,0.8,0.3c0.2,0.2,0.3,0.5,0.3,0.8v4.8c0,2.5-0.5,4.7-1.6,6.4
		c-1.1,1.8-2.7,3.1-4.7,4.1C83.5,41.1,81.1,41.5,78.4,41.5z"/>
	<path class="st0" d="M98.3,41.1c-0.3,0-0.6-0.1-0.8-0.3c-0.2-0.2-0.3-0.5-0.3-0.8V11.5c0-0.3,0.1-0.6,0.3-0.8
		c0.2-0.2,0.5-0.3,0.8-0.3h5c0.3,0,0.6,0.1,0.8,0.3c0.2,0.2,0.3,0.5,0.3,0.8V40c0,0.3-0.1,0.6-0.3,0.8c-0.2,0.2-0.5,0.3-0.8,0.3
		H98.3z"/>
	<path class="st0" d="M123,41.5c-2.7,0-5.1-0.5-7-1.4c-1.9-0.9-3.4-2.3-4.4-4c-1.1-1.8-1.6-3.9-1.8-6.5c0-1.2,0-2.5,0-3.9
		c0-1.4,0-2.7,0-3.9c0.1-2.5,0.7-4.7,1.8-6.4c1.1-1.8,2.6-3.1,4.5-4.1c1.9-0.9,4.2-1.4,6.9-1.4c2,0,3.7,0.2,5.3,0.7
		c1.6,0.5,3,1.2,4.2,2.1c1.2,0.9,2.1,2,2.7,3.3c0.6,1.3,1,2.7,1.1,4.2c0,0.3-0.1,0.5-0.3,0.7c-0.2,0.2-0.4,0.3-0.7,0.3h-5
		c-0.4,0-0.6-0.1-0.8-0.3c-0.2-0.2-0.4-0.5-0.5-0.9c-0.4-1.7-1.2-2.9-2.2-3.5c-1-0.6-2.3-1-3.8-1c-1.8,0-3.2,0.5-4.3,1.5
		c-1.1,1-1.6,2.6-1.7,5c-0.1,2.4-0.1,4.8,0,7.4c0.1,2.3,0.7,4,1.7,5c1.1,1,2.5,1.5,4.3,1.5c1.5,0,2.8-0.3,3.8-1
		c1-0.7,1.8-1.8,2.2-3.5c0.1-0.4,0.3-0.7,0.5-0.9c0.2-0.2,0.5-0.2,0.8-0.2h5c0.3,0,0.5,0.1,0.7,0.3c0.2,0.2,0.3,0.4,0.3,0.7
		c-0.1,1.5-0.4,3-1.1,4.2c-0.6,1.3-1.5,2.4-2.7,3.3c-1.2,0.9-2.6,1.7-4.2,2.1C126.7,41.3,124.9,41.5,123,41.5z"/>
</g>
<g>
	<path class="st0" d="M221.5,41.1c-0.3,0-0.6-0.1-0.8-0.3c-0.2-0.2-0.3-0.5-0.3-0.8V11.5c0-0.3,0.1-0.6,0.3-0.8
		c0.2-0.2,0.5-0.3,0.8-0.3h13c2.4,0,4.4,0.4,6,1.1c1.5,0.7,2.7,1.7,3.4,3c0.7,1.3,1.1,2.8,1.1,4.5c0,1.1-0.2,2-0.6,2.8
		c-0.4,0.8-0.9,1.5-1.4,2c-0.6,0.5-1.1,0.9-1.6,1.2c1.1,0.5,2.1,1.4,3,2.6c0.9,1.2,1.3,2.7,1.3,4.3c0,1.8-0.4,3.4-1.2,4.8
		c-0.8,1.4-2,2.4-3.6,3.2c-1.6,0.8-3.6,1.1-5.9,1.1H221.5z M227.3,22.8h6.3c1.4,0,2.4-0.3,3.1-1c0.7-0.7,1-1.6,1-2.7
		c0-1.1-0.3-2-1-2.6c-0.7-0.7-1.7-1-3.1-1h-6.3V22.8z M227.3,36h6.7c1.4,0,2.5-0.4,3.2-1.2s1.1-1.8,1.1-2.9c0-1.1-0.4-2.1-1.1-2.9
		c-0.7-0.8-1.8-1.2-3.2-1.2h-6.7V36z"/>
	<path class="st0" d="M248.6,41.1c-0.3,0-0.5-0.1-0.7-0.3c-0.2-0.2-0.3-0.4-0.3-0.6c0-0.1,0-0.3,0-0.4l10.4-28.2
		c0.1-0.3,0.3-0.6,0.5-0.8c0.3-0.2,0.6-0.4,1.1-0.4h5.6c0.5,0,0.8,0.1,1.1,0.4c0.3,0.2,0.4,0.5,0.5,0.8l10.4,28.2c0,0.1,0,0.2,0,0.4
		c0,0.2-0.1,0.4-0.3,0.6c-0.2,0.2-0.4,0.3-0.7,0.3H272c-0.4,0-0.8-0.1-1-0.3c-0.2-0.2-0.3-0.4-0.4-0.6l-1.9-4.9h-12.4l-1.9,4.9
		c-0.1,0.2-0.2,0.4-0.4,0.6c-0.2,0.2-0.5,0.3-1,0.3H248.6z M258,29.7h9.1l-4.5-12.6L258,29.7z"/>
	<path class="st0" d="M282.3,41.1c-0.3,0-0.6-0.1-0.8-0.3c-0.2-0.2-0.3-0.5-0.3-0.8V11.5c0-0.3,0.1-0.6,0.3-0.8
		c0.2-0.2,0.5-0.3,0.8-0.3h4.9c0.3,0,0.6,0.1,0.8,0.3c0.2,0.2,0.3,0.5,0.3,0.8v23.7h13.6c0.3,0,0.6,0.1,0.8,0.3
		c0.2,0.2,0.3,0.5,0.3,0.8V40c0,0.3-0.1,0.6-0.3,0.8c-0.2,0.2-0.5,0.3-0.8,0.3H282.3z"/>
	<path class="st0" d="M308.1,41.1c-0.3,0-0.6-0.1-0.8-0.3c-0.2-0.2-0.3-0.5-0.3-0.8V11.5c0-0.3,0.1-0.6,0.3-0.8
		c0.2-0.2,0.5-0.3,0.8-0.3h4.9c0.3,0,0.6,0.1,0.8,0.3c0.2,0.2,0.3,0.5,0.3,0.8v23.7h13.6c0.3,0,0.6,0.1,0.8,0.3
		c0.2,0.2,0.3,0.5,0.3,0.8V40c0,0.3-0.1,0.6-0.3,0.8c-0.2,0.2-0.5,0.3-0.8,0.3H308.1z"/>
</g>
<path class="st4" d="M135,54H1.3C0.6,54,0,53.4,0,52.7v-3.1c0-0.7,0.6-1.3,1.3-1.3H135c0.7,0,1.3,0.6,1.3,1.3v3.1
	C136.3,53.4,135.7,54,135,54z"/>
<path class="st4" d="M327.4,54H221.6c-0.7,0-1.3-0.6-1.3-1.3v-3c0-0.7,0.6-1.3,1.3-1.3h105.8c0.7,0,1.3,0.6,1.3,1.3v3
	C328.7,53.4,328.1,54,327.4,54z"/>
</svg>
